<svg width="360" height="360" viewBox="0 0 360 360" fill="none" xmlns="http://www.w3.org/2000/svg">
<rect width="360" height="360" rx="25" fill="url(#paint0_linear_1711_16774)"/>
<path opacity="0.01" d="M165.494 100.682C162.804 100.682 160.643 99.8663 159.013 98.2357C157.423 96.5644 156.628 94.465 156.628 91.9375C156.628 90.5515 156.893 89.3082 157.423 88.2075C157.993 87.1069 158.911 86.0266 160.174 84.9667L179.558 68.3346C179.966 68.0085 180.251 67.7027 180.414 67.4174C180.577 67.132 180.659 66.7855 180.659 66.3779C180.659 66.0518 180.557 65.7256 180.353 65.3995C180.149 65.0734 179.905 64.8084 179.619 64.6046C179.334 64.4008 178.987 64.2989 178.58 64.2989H157.79V57.8784H179.497C181.331 57.8784 182.901 58.2656 184.205 59.0402C185.51 59.7739 186.529 60.7931 187.263 62.0976C187.996 63.402 188.363 64.89 188.363 66.5613C188.363 67.9473 188.078 69.2314 187.507 70.4136C186.937 71.555 186.06 72.6149 184.878 73.5933L165.433 90.2254C165.148 90.4292 164.903 90.6331 164.699 90.8369C164.536 91.0407 164.414 91.2445 164.332 91.4484C164.292 91.6114 164.271 91.856 164.271 92.1821C164.271 92.5083 164.353 92.8344 164.516 93.1605C164.72 93.4866 164.985 93.7516 165.311 93.9554C165.637 94.1592 166.004 94.2612 166.411 94.2612H188.486V100.682H165.494ZM195.363 100.682V69.4964H202.395V100.682H195.363ZM198.848 65.1549C197.625 65.1549 196.565 64.7065 195.669 63.8097C194.772 62.9129 194.323 61.853 194.323 60.63C194.323 59.4071 194.772 58.3472 195.669 57.4503C196.565 56.5535 197.625 56.1051 198.848 56.1051C200.112 56.1051 201.172 56.5535 202.028 57.4503C202.925 58.3472 203.373 59.4071 203.373 60.63C203.373 61.853 202.925 62.9129 202.028 63.8097C201.172 64.7065 200.112 65.1549 198.848 65.1549Z" fill="white"/>
<path d="M115.275 205.1C108.773 205.103 102.196 202.975 98.293 197.774C94.0629 192.138 91.6727 185.944 91.1225 179.191C90.3225 169.374 93.4413 160.417 100.479 152.321C103.84 148.455 107.829 145.452 112.446 143.314C117.168 141.054 122.707 139.929 129.063 139.939L224.985 138.678C225.437 138.647 225.828 138.563 226.159 138.426C226.716 138.274 227.152 138.016 227.467 137.654C228.284 136.714 228.364 135.237 227.953 134.062C227.932 134.001 227.909 133.94 227.884 133.879C227.582 132.776 226.3 132.414 225.156 132.415L109.012 132.463C103.825 132.418 99.6491 128.191 99.6674 123.003C99.6857 117.797 103.921 113.592 109.127 113.61L245.513 113.015C251.979 113.038 258.522 115.16 262.381 120.348C264.598 123.33 266.281 126.465 267.429 129.752C269.784 135.83 270.331 142.033 269.071 148.363C267.917 154.572 264.976 160.395 260.249 165.833C256.888 169.699 252.847 172.762 248.125 175.022C243.628 177.266 238.489 178.419 232.705 178.483L135.901 179.295C135.754 179.305 135.561 179.318 135.321 179.335C135.032 179.355 134.748 179.422 134.48 179.533C134.093 179.692 133.748 179.94 133.474 180.256C133.409 180.33 133.338 180.412 133.261 180.5C132.841 180.984 132.542 181.572 132.363 182.266C132.29 182.838 132.39 183.455 132.663 184.117C133.213 185.449 134.773 185.897 136.213 185.896L248.626 185.823C253.951 185.819 258.264 190.145 258.245 195.47C258.226 200.765 253.93 205.048 248.635 205.05L115.275 205.1Z" fill="white"/>
<rect x="180.314" y="139.034" width="5" height="81.6398" transform="rotate(-30 180.314 139.034)" fill="#D9D9D9"/>
<path d="M180.731 133.876L221.502 204.492" stroke="#9D06D2" stroke-width="5.88471" stroke-linecap="round"/>
<path d="M144.326 111.682L185.097 182.298" stroke="#9D06D2" stroke-width="5.88471" stroke-linecap="round"/>
<path d="M90.7387 282.736C88.0482 282.736 85.8876 281.921 84.257 280.29C82.6672 278.619 81.8723 276.52 81.8723 273.992C81.8723 272.606 82.1373 271.363 82.6672 270.262C83.2379 269.162 84.1551 268.081 85.4188 267.021L104.803 250.389C105.21 250.063 105.496 249.757 105.659 249.472C105.822 249.187 105.903 248.84 105.903 248.433C105.903 248.106 105.801 247.78 105.598 247.454C105.394 247.128 105.149 246.863 104.864 246.659C104.578 246.455 104.232 246.354 103.824 246.354H83.0341V239.933H104.741C106.576 239.933 108.145 240.32 109.45 241.095C110.754 241.829 111.773 242.848 112.507 244.152C113.241 245.457 113.608 246.945 113.608 248.616C113.608 250.002 113.322 251.286 112.752 252.468C112.181 253.61 111.305 254.67 110.122 255.648L90.6775 272.28C90.3922 272.484 90.1476 272.688 89.9438 272.892C89.7807 273.095 89.6584 273.299 89.5769 273.503C89.5361 273.666 89.5157 273.911 89.5157 274.237C89.5157 274.563 89.5973 274.889 89.7603 275.215C89.9641 275.541 90.2291 275.806 90.5552 276.01C90.8814 276.214 91.2482 276.316 91.6559 276.316H113.73V282.736H90.7387ZM120.607 282.736V251.551H127.639V282.736H120.607ZM124.093 247.21C122.87 247.21 121.81 246.761 120.913 245.864C120.016 244.968 119.568 243.908 119.568 242.685C119.568 241.462 120.016 240.402 120.913 239.505C121.81 238.608 122.87 238.16 124.093 238.16C125.356 238.16 126.416 238.608 127.272 239.505C128.169 240.402 128.618 241.462 128.618 242.685C128.618 243.908 128.169 244.968 127.272 245.864C126.416 246.761 125.356 247.21 124.093 247.21ZM131.854 289.096V284.082H162.428V289.096H131.854ZM181.689 282.736C178.469 282.736 175.595 282.043 173.068 280.657C170.54 279.271 168.543 277.416 167.075 275.093C165.608 272.729 164.874 270.079 164.874 267.144C164.874 264.209 165.608 261.579 167.075 259.256C168.543 256.891 170.54 255.016 173.068 253.63C175.595 252.244 178.469 251.551 181.689 251.551H185.481V257.544H181.567C179.692 257.544 178.021 257.972 176.553 258.828C175.126 259.643 174.005 260.784 173.19 262.252C172.375 263.719 171.967 265.35 171.967 267.144C171.967 268.937 172.375 270.568 173.19 272.036C174.005 273.503 175.126 274.665 176.553 275.521C178.021 276.336 179.692 276.744 181.567 276.744H185.481V282.736H181.689ZM206.467 283.47C203.246 283.47 200.393 282.757 197.906 281.33C195.419 279.862 193.442 277.906 191.975 275.46C190.548 272.973 189.834 270.201 189.834 267.144C189.834 264.086 190.548 261.335 191.975 258.889C193.442 256.402 195.419 254.445 197.906 253.019C200.393 251.551 203.246 250.817 206.467 250.817C209.646 250.817 212.479 251.551 214.966 253.019C217.453 254.445 219.409 256.382 220.836 258.828C222.304 261.274 223.038 264.046 223.038 267.144C223.038 270.201 222.304 272.973 220.836 275.46C219.409 277.906 217.453 279.862 214.966 281.33C212.479 282.757 209.646 283.47 206.467 283.47ZM206.467 277.478C208.383 277.478 210.054 277.029 211.481 276.132C212.907 275.195 214.008 273.951 214.783 272.402C215.557 270.853 215.944 269.1 215.944 267.144C215.944 265.228 215.557 263.495 214.783 261.946C214.008 260.356 212.907 259.113 211.481 258.216C210.054 257.279 208.383 256.81 206.467 256.81C204.51 256.81 202.818 257.279 201.391 258.216C200.005 259.113 198.905 260.336 198.089 261.885C197.315 263.434 196.928 265.187 196.928 267.144C196.928 269.06 197.315 270.813 198.089 272.402C198.905 273.951 200.005 275.195 201.391 276.132C202.818 277.029 204.51 277.478 206.467 277.478ZM229.461 282.736V260.417C229.461 257.645 230.235 255.485 231.785 253.936C233.374 252.346 235.555 251.551 238.327 251.551H245.848V257.544H239.611C238.633 257.544 237.858 257.829 237.288 258.4C236.758 258.97 236.493 259.745 236.493 260.723V282.736H229.461ZM266.501 282.736C262.995 282.736 259.917 282.084 257.268 280.78C254.659 279.434 252.621 277.6 251.153 275.276C249.685 272.912 248.952 270.201 248.952 267.144C248.952 263.923 249.604 261.09 250.908 258.644C252.213 256.198 254.007 254.282 256.289 252.896C258.572 251.51 261.202 250.817 264.177 250.817C267.52 250.817 270.272 251.531 272.432 252.957C274.593 254.384 276.183 256.3 277.202 258.705C278.262 261.11 278.792 263.801 278.792 266.777C278.792 267.184 278.771 267.653 278.731 268.183C278.69 268.713 278.629 269.121 278.547 269.406H256.412C256.656 271.037 257.247 272.402 258.185 273.503C259.123 274.563 260.305 275.378 261.732 275.949C263.158 276.479 264.748 276.744 266.501 276.744H274.878V282.736H266.501ZM256.351 264.637H271.76C271.719 263.862 271.597 263.088 271.393 262.313C271.23 261.539 270.944 260.805 270.537 260.112C270.17 259.419 269.681 258.828 269.069 258.338C268.498 257.809 267.805 257.401 266.99 257.116C266.175 256.789 265.237 256.626 264.177 256.626C262.954 256.626 261.874 256.871 260.937 257.36C259.999 257.809 259.204 258.42 258.552 259.195C257.9 259.928 257.39 260.784 257.023 261.763C256.697 262.7 256.473 263.658 256.351 264.637Z" fill="white"/>
<defs>
<linearGradient id="paint0_linear_1711_16774" x1="180" y1="0" x2="180" y2="360" gradientUnits="userSpaceOnUse">
<stop stop-color="#BD00FF"/>
<stop offset="1" stop-color="#9700CC"/>
</linearGradient>
</defs>
</svg>
